<svg width="1722" height="995" viewBox="0 0 1722 995" fill="none" xmlns="http://www.w3.org/2000/svg">
<g clip-path="url(#clip0_3_7)">
<path d="M796.363 219.75L1295.19 507.75C1300.69 510.926 1300.69 516.074 1295.19 519.25L1023.69 676C1018.19 679.176 1009.28 679.176 1003.78 676L504.946 388C499.445 384.824 499.445 379.676 504.946 376.5L776.445 219.75C781.945 216.574 790.863 216.574 796.363 219.75Z" fill="#93C5FD" stroke="#3B82F6"/>
<path d="M797.229 214.25L1296.06 502.25C1301.56 505.426 1301.56 510.574 1296.06 513.75L1024.13 670.75C1018.63 673.926 1009.71 673.926 1004.21 670.75L505.379 382.75C499.878 379.574 499.878 374.426 505.379 371.25L777.311 214.25C782.811 211.074 791.729 211.074 797.229 214.25Z" fill="#DBEAFE" stroke="#3B82F6"/>
</g>
<defs>
<clipPath id="clip0_3_7">
<rect width="1111.06" height="877.061" fill="white" transform="matrix(0.866025 0.5 -0.866025 0.5 759.557 0)"/>
</clipPath>
</defs>
</svg>
